<svg width="169" height="169" viewBox="0 0 169 169" fill="none" xmlns="http://www.w3.org/2000/svg">
<path d="M76.1617 5.46761C80.2028 -0.503216 88.9969 -0.503215 93.038 5.46761C96.1657 10.0888 102.429 11.3345 107.087 8.26204C113.105 4.29218 121.23 7.65756 122.678 14.7203C123.799 20.1866 129.109 23.7343 134.588 22.6782C141.668 21.3137 147.886 27.5321 146.521 34.6116C145.465 40.0908 149.013 45.4003 154.479 46.5214C161.542 47.9699 164.908 56.0947 160.938 62.1131C157.865 66.7711 159.111 73.034 163.732 76.1617C169.703 80.2028 169.703 88.9969 163.732 93.038C159.111 96.1657 157.865 102.429 160.938 107.087C164.908 113.105 161.542 121.23 154.479 122.678C149.013 123.799 145.465 129.109 146.521 134.588C147.886 141.668 141.668 147.886 134.588 146.521C129.109 145.465 123.799 149.013 122.678 154.479C121.23 161.542 113.105 164.908 107.087 160.938C102.429 157.865 96.1657 159.111 93.038 163.732C88.9969 169.703 80.2028 169.703 76.1617 163.732C73.034 159.111 66.7711 157.865 62.1131 160.938C56.0947 164.908 47.9699 161.542 46.5214 154.479C45.4003 149.013 40.0908 145.465 34.6116 146.521C27.5321 147.886 21.3137 141.668 22.6782 134.588C23.7343 129.109 20.1866 123.799 14.7203 122.678C7.65756 121.23 4.29218 113.105 8.26204 107.087C11.3345 102.429 10.0888 96.1657 5.46761 93.038C-0.503216 88.9969 -0.503215 80.2028 5.46761 76.1617C10.0888 73.034 11.3345 66.7711 8.26204 62.1131C4.29218 56.0947 7.65756 47.9699 14.7203 46.5214C20.1866 45.4003 23.7343 40.0908 22.6782 34.6116C21.3137 27.5321 27.5321 21.3137 34.6116 22.6782C40.0908 23.7343 45.4003 20.1866 46.5214 14.7203C47.9699 7.65756 56.0947 4.29218 62.1131 8.26204C66.7711 11.3345 73.034 10.0888 76.1617 5.46761Z" fill="url(#paint0_linear_9055_16)"/>
<defs>
<linearGradient id="paint0_linear_9055_16" x1="176.2" y1="112.825" x2="36.8989" y2="119.635" gradientUnits="userSpaceOnUse">
<stop stop-color="#237249"/>
<stop offset="1" stop-color="#35C66B"/>
</linearGradient>
</defs>
</svg>
